<?xml version="1.0" encoding="UTF-8"?>
<svg xmlns="http://www.w3.org/2000/svg"
     width="512" height="512" viewBox="0 0 512 512"
     fill="none">
  <title>Ícone vetorial</title>
  <path d="M 128 46 L 126 48 L 125 48 L 122 51 L 121 51 L 110 62 L 110 63 L 108 65 L 108 66 L 107 67 L 107 68 L 105 70 L 105 71 L 103 74 L 103 76 L 101 79 L 101 81 L 100 82 L 100 84 L 99 85 L 99 87 L 98 88 L 98 90 L 97 91 L 97 93 L 96 94 L 96 96 L 95 97 L 95 99 L 94 100 L 94 102 L 93 103 L 93 105 L 92 106 L 92 109 L 91 110 L 91 112 L 90 113 L 90 115 L 89 116 L 89 118 L 88 119 L 88 122 L 87 123 L 87 125 L 86 126 L 86 128 L 85 129 L 85 132 L 84 133 L 84 135 L 83 136 L 83 139 L 82 140 L 82 142 L 81 143 L 81 146 L 80 147 L 80 150 L 79 151 L 79 154 L 78 155 L 78 158 L 77 159 L 77 162 L 76 163 L 76 166 L 75 167 L 75 170 L 74 171 L 74 174 L 73 175 L 73 178 L 72 179 L 72 182 L 71 183 L 71 187 L 70 188 L 70 192 L 69 193 L 69 196 L 68 197 L 68 202 L 67 203 L 67 207 L 66 208 L 66 212 L 65 213 L 65 218 L 64 219 L 64 224 L 63 225 L 63 230 L 62 231 L 62 237 L 61 238 L 61 245 L 60 246 L 60 253 L 59 254 L 59 264 L 58 265 L 58 278 L 57 279 L 57 322 L 58 323 L 58 336 L 59 337 L 59 346 L 60 347 L 60 353 L 61 354 L 61 359 L 62 360 L 62 365 L 63 366 L 63 370 L 64 371 L 64 375 L 65 376 L 65 379 L 66 380 L 66 383 L 67 384 L 67 387 L 68 388 L 68 390 L 69 391 L 69 394 L 70 395 L 70 397 L 71 398 L 71 400 L 72 401 L 72 403 L 73 404 L 73 406 L 74 407 L 74 409 L 75 410 L 75 412 L 77 415 L 77 417 L 78 418 L 78 419 L 79 420 L 79 422 L 81 425 L 81 427 L 82 428 L 82 429 L 85 434 L 85 436 L 86 437 L 86 438 L 87 439 L 87 440 L 88 441 L 88 442 L 89 443 L 90 446 L 92 448 L 92 449 L 94 451 L 94 452 L 97 455 L 97 456 L 103 462 L 104 462 L 107 465 L 108 465 L 113 469 L 114 469 L 119 472 L 121 472 L 124 474 L 127 474 L 128 475 L 131 475 L 132 476 L 137 476 L 138 477 L 374 477 L 375 476 L 380 476 L 381 475 L 385 475 L 386 474 L 388 474 L 389 473 L 391 473 L 392 472 L 393 472 L 394 471 L 395 471 L 396 470 L 397 470 L 398 469 L 401 468 L 403 466 L 404 466 L 408 462 L 409 462 L 415 456 L 415 455 L 419 451 L 419 450 L 421 448 L 421 447 L 422 446 L 422 445 L 423 444 L 423 443 L 424 442 L 424 441 L 425 440 L 425 439 L 428 434 L 428 432 L 429 431 L 429 430 L 431 427 L 431 425 L 434 420 L 434 418 L 435 417 L 435 415 L 437 412 L 437 410 L 438 409 L 438 407 L 439 406 L 439 404 L 440 403 L 440 401 L 441 400 L 441 398 L 442 397 L 442 395 L 443 394 L 443 392 L 444 391 L 444 388 L 445 387 L 445 384 L 446 383 L 446 380 L 447 379 L 447 376 L 448 375 L 448 371 L 449 370 L 449 366 L 450 365 L 450 361 L 451 360 L 451 355 L 452 354 L 452 347 L 453 346 L 453 338 L 454 337 L 454 325 L 455 324 L 455 278 L 454 277 L 454 264 L 453 263 L 453 254 L 452 253 L 452 245 L 451 244 L 451 238 L 450 237 L 450 231 L 449 230 L 449 224 L 448 223 L 448 218 L 447 217 L 447 213 L 446 212 L 446 207 L 445 206 L 445 202 L 444 201 L 444 197 L 443 196 L 443 192 L 442 191 L 442 188 L 441 187 L 441 183 L 440 182 L 440 179 L 439 178 L 439 174 L 438 173 L 438 170 L 437 169 L 437 166 L 436 165 L 436 162 L 435 161 L 435 158 L 434 157 L 434 154 L 433 153 L 433 151 L 432 150 L 432 147 L 431 146 L 431 143 L 430 142 L 430 140 L 429 139 L 429 136 L 428 135 L 428 133 L 427 132 L 427 129 L 426 128 L 426 126 L 425 125 L 425 122 L 424 121 L 424 119 L 423 118 L 423 116 L 422 115 L 422 112 L 421 111 L 421 109 L 420 108 L 420 106 L 419 105 L 419 103 L 418 102 L 418 100 L 417 99 L 417 97 L 416 96 L 416 94 L 415 93 L 415 91 L 414 90 L 414 88 L 413 87 L 413 85 L 412 84 L 412 82 L 411 81 L 411 79 L 410 78 L 410 76 L 409 75 L 409 74 L 408 73 L 408 72 L 407 71 L 406 68 L 404 66 L 404 65 L 402 63 L 402 62 L 390 50 L 389 50 L 384 46 L 383 46 L 378 43 L 376 43 L 373 41 L 371 41 L 370 40 L 367 40 L 366 39 L 361 39 L 360 38 L 152 38 L 151 39 L 146 39 L 145 40 L 143 40 L 142 41 L 139 41 L 136 43 L 134 43 L 133 44 L 132 44 L 131 45 Z M 98 434 L 99 433 L 413 433 L 414 434 L 414 435 L 413 436 L 412 439 L 408 444 L 408 445 L 398 455 L 397 455 L 392 459 L 391 459 L 390 460 L 388 460 L 385 462 L 383 462 L 382 463 L 379 463 L 378 464 L 372 464 L 371 465 L 141 465 L 140 464 L 134 464 L 133 463 L 130 463 L 129 462 L 127 462 L 126 461 L 125 461 L 124 460 L 123 460 L 122 459 L 121 459 L 120 458 L 117 457 L 114 454 L 113 454 L 104 445 L 104 444 L 102 442 L 102 441 L 101 440 L 101 439 Z M 79 206 L 80 205 L 214 205 L 215 206 L 215 359 L 216 360 L 216 365 L 217 366 L 217 368 L 218 369 L 218 371 L 219 372 L 219 373 L 220 374 L 221 377 L 223 379 L 223 380 L 232 389 L 233 389 L 235 391 L 236 391 L 241 394 L 243 394 L 244 395 L 247 395 L 248 396 L 264 396 L 265 395 L 268 395 L 269 394 L 271 394 L 272 393 L 273 393 L 274 392 L 277 391 L 279 389 L 280 389 L 283 386 L 284 386 L 285 385 L 285 384 L 290 379 L 290 378 L 291 377 L 291 376 L 292 375 L 292 374 L 295 369 L 295 366 L 296 365 L 296 361 L 297 360 L 297 206 L 298 205 L 432 205 L 433 206 L 433 209 L 434 210 L 434 215 L 435 216 L 435 220 L 436 221 L 436 226 L 437 227 L 437 233 L 438 234 L 438 240 L 439 241 L 439 247 L 440 248 L 440 256 L 441 257 L 441 266 L 442 267 L 442 281 L 443 282 L 443 320 L 442 321 L 442 334 L 441 335 L 441 344 L 440 345 L 440 351 L 439 352 L 439 357 L 438 358 L 438 363 L 437 364 L 437 368 L 436 369 L 436 372 L 435 373 L 435 377 L 434 378 L 434 381 L 433 382 L 433 384 L 432 385 L 432 388 L 431 389 L 431 391 L 430 392 L 430 394 L 429 395 L 429 398 L 428 399 L 428 401 L 426 404 L 426 406 L 425 407 L 425 409 L 423 412 L 423 414 L 421 417 L 421 419 L 419 421 L 93 421 L 91 419 L 91 417 L 90 416 L 90 415 L 89 414 L 89 412 L 87 409 L 87 407 L 86 406 L 86 404 L 85 403 L 85 401 L 84 400 L 84 398 L 83 397 L 83 395 L 82 394 L 82 392 L 81 391 L 81 389 L 80 388 L 80 385 L 79 384 L 79 381 L 78 380 L 78 377 L 77 376 L 77 373 L 76 372 L 76 369 L 75 368 L 75 364 L 74 363 L 74 358 L 73 357 L 73 351 L 72 350 L 72 344 L 71 343 L 71 334 L 70 333 L 70 319 L 69 318 L 69 284 L 70 283 L 70 268 L 71 267 L 71 258 L 72 257 L 72 249 L 73 248 L 73 241 L 74 240 L 74 234 L 75 233 L 75 228 L 76 227 L 76 222 L 77 221 L 77 216 L 78 215 L 78 211 L 79 210 Z M 255 86 L 256 86 L 257 87 L 266 87 L 267 88 L 270 88 L 271 89 L 273 89 L 276 91 L 278 91 L 279 92 L 280 92 L 282 94 L 285 95 L 289 99 L 290 99 L 296 105 L 296 106 L 299 109 L 300 112 L 302 114 L 302 115 L 304 118 L 304 120 L 305 121 L 305 123 L 306 124 L 306 127 L 307 128 L 307 133 L 308 134 L 308 142 L 307 143 L 307 149 L 306 150 L 306 153 L 304 156 L 304 158 L 303 159 L 303 160 L 302 161 L 301 164 L 297 169 L 297 170 L 288 179 L 287 179 L 287 180 L 285 183 L 285 357 L 284 358 L 284 363 L 283 364 L 283 366 L 282 367 L 281 370 L 279 372 L 279 373 L 273 379 L 272 379 L 270 381 L 269 381 L 268 382 L 266 382 L 265 383 L 263 383 L 262 384 L 250 384 L 249 383 L 247 383 L 244 381 L 242 381 L 239 378 L 238 378 L 233 373 L 233 372 L 231 370 L 231 369 L 229 366 L 229 364 L 228 363 L 228 357 L 227 356 L 227 183 L 226 182 L 225 179 L 224 178 L 223 178 L 216 171 L 216 170 L 213 167 L 213 166 L 211 164 L 211 163 L 208 158 L 208 156 L 207 155 L 207 153 L 206 152 L 206 149 L 205 148 L 205 142 L 204 141 L 204 135 L 205 134 L 205 128 L 206 127 L 206 124 L 207 123 L 207 121 L 209 118 L 209 116 L 210 115 L 210 114 L 212 112 L 213 109 L 217 105 L 217 104 L 222 99 L 223 99 L 226 96 L 227 96 L 229 94 L 230 94 L 232 92 L 233 92 L 234 91 L 236 91 L 239 89 L 241 89 L 242 88 L 245 88 L 246 87 L 254 87 Z M 252 100 L 251 101 L 247 101 L 246 102 L 243 102 L 242 103 L 241 103 L 240 104 L 239 104 L 238 105 L 235 106 L 232 109 L 231 109 L 227 113 L 227 114 L 224 117 L 224 118 L 223 119 L 223 120 L 220 125 L 220 127 L 219 128 L 219 131 L 218 132 L 218 144 L 219 145 L 219 149 L 221 152 L 221 154 L 222 155 L 223 158 L 225 160 L 225 161 L 233 169 L 234 169 L 236 171 L 237 171 L 242 174 L 244 174 L 245 175 L 247 175 L 248 176 L 264 176 L 265 175 L 267 175 L 268 174 L 270 174 L 271 173 L 272 173 L 273 172 L 274 172 L 275 171 L 278 170 L 287 161 L 287 160 L 289 158 L 289 157 L 292 152 L 292 150 L 293 149 L 293 146 L 294 145 L 294 132 L 293 131 L 293 128 L 292 127 L 292 125 L 291 124 L 291 122 L 290 121 L 290 120 L 288 118 L 288 117 L 286 115 L 286 114 L 281 109 L 280 109 L 277 106 L 276 106 L 275 105 L 274 105 L 269 102 L 266 102 L 265 101 L 261 101 L 260 100 Z M 263 113 L 264 114 L 266 114 L 267 115 L 268 115 L 270 117 L 271 117 L 278 124 L 278 125 L 281 130 L 281 133 L 282 134 L 282 143 L 281 144 L 281 146 L 280 147 L 280 149 L 279 150 L 279 151 L 277 153 L 277 154 L 272 159 L 271 159 L 269 161 L 268 161 L 265 163 L 263 163 L 262 162 L 262 114 Z M 249 113 L 250 114 L 250 162 L 249 163 L 247 163 L 246 162 L 243 161 L 240 158 L 239 158 L 236 155 L 236 154 L 232 149 L 232 147 L 231 146 L 231 143 L 230 142 L 230 134 L 231 133 L 231 131 L 232 130 L 232 128 L 233 127 L 233 126 L 235 124 L 235 123 L 241 117 L 242 117 L 244 115 L 245 115 L 246 114 L 248 114 Z M 82 191 L 83 190 L 83 186 L 84 185 L 84 182 L 85 181 L 85 178 L 86 177 L 86 174 L 87 173 L 87 169 L 88 168 L 88 165 L 89 164 L 89 161 L 90 160 L 90 158 L 91 157 L 91 154 L 92 153 L 92 150 L 93 149 L 93 146 L 94 145 L 94 143 L 95 142 L 95 139 L 96 138 L 96 136 L 97 135 L 97 132 L 98 131 L 98 129 L 99 128 L 99 125 L 100 124 L 100 122 L 101 121 L 101 119 L 102 118 L 102 115 L 103 114 L 103 112 L 104 111 L 104 109 L 105 108 L 105 106 L 106 105 L 106 103 L 107 102 L 107 100 L 108 99 L 108 97 L 109 96 L 109 94 L 110 93 L 110 91 L 111 90 L 111 88 L 112 87 L 112 85 L 113 84 L 113 82 L 114 81 L 114 80 L 115 79 L 115 78 L 116 77 L 117 74 L 119 72 L 119 71 L 122 68 L 122 67 L 126 63 L 127 63 L 131 59 L 132 59 L 134 57 L 135 57 L 136 56 L 137 56 L 142 53 L 144 53 L 145 52 L 148 52 L 149 51 L 154 51 L 155 50 L 358 50 L 359 51 L 364 51 L 365 52 L 367 52 L 368 53 L 370 53 L 371 54 L 372 54 L 373 55 L 374 55 L 375 56 L 376 56 L 377 57 L 380 58 L 384 62 L 385 62 L 390 67 L 390 68 L 394 72 L 394 73 L 395 74 L 395 75 L 396 76 L 396 77 L 399 82 L 399 84 L 400 85 L 400 87 L 401 88 L 401 90 L 403 93 L 403 95 L 404 96 L 404 98 L 405 99 L 405 102 L 406 103 L 406 105 L 407 106 L 407 108 L 408 109 L 408 111 L 409 112 L 409 114 L 410 115 L 410 117 L 411 118 L 411 121 L 412 122 L 412 124 L 413 125 L 413 127 L 414 128 L 414 131 L 415 132 L 415 134 L 416 135 L 416 138 L 417 139 L 417 141 L 418 142 L 418 145 L 419 146 L 419 149 L 420 150 L 420 152 L 421 153 L 421 156 L 422 157 L 422 160 L 423 161 L 423 164 L 424 165 L 424 168 L 425 169 L 425 172 L 426 173 L 426 176 L 427 177 L 427 181 L 428 182 L 428 185 L 429 186 L 429 189 L 430 190 L 430 192 L 429 193 L 298 193 L 297 192 L 297 187 L 298 186 L 299 186 L 304 181 L 304 180 L 308 176 L 308 175 L 310 173 L 311 170 L 313 168 L 313 167 L 314 166 L 314 164 L 316 161 L 316 159 L 317 158 L 317 156 L 318 155 L 318 152 L 319 151 L 319 146 L 320 145 L 320 132 L 319 131 L 319 125 L 318 124 L 318 121 L 317 120 L 317 118 L 316 117 L 316 115 L 315 114 L 315 113 L 314 112 L 314 111 L 313 110 L 313 109 L 312 108 L 311 105 L 309 103 L 309 102 L 307 100 L 307 99 L 295 87 L 294 87 L 289 83 L 288 83 L 287 82 L 286 82 L 281 79 L 279 79 L 276 77 L 273 77 L 272 76 L 269 76 L 268 75 L 261 75 L 260 74 L 252 74 L 251 75 L 244 75 L 243 76 L 240 76 L 239 77 L 237 77 L 236 78 L 234 78 L 233 79 L 231 79 L 230 80 L 229 80 L 228 81 L 227 81 L 226 82 L 223 83 L 221 85 L 220 85 L 217 88 L 216 88 L 205 99 L 205 100 L 201 105 L 201 106 L 200 107 L 200 108 L 197 113 L 197 115 L 195 118 L 195 121 L 194 122 L 194 125 L 193 126 L 193 131 L 192 132 L 192 144 L 193 145 L 193 151 L 194 152 L 194 155 L 195 156 L 195 158 L 196 159 L 196 161 L 197 162 L 197 163 L 198 164 L 198 165 L 199 166 L 199 167 L 200 168 L 200 169 L 201 170 L 202 173 L 205 176 L 205 177 L 209 181 L 209 182 L 212 185 L 213 185 L 215 187 L 215 192 L 214 193 L 83 193 L 82 192 Z M 339 145 L 338 146 L 336 146 L 335 147 L 332 148 L 326 154 L 326 155 L 324 158 L 324 162 L 323 163 L 323 166 L 324 167 L 324 170 L 325 171 L 325 173 L 327 175 L 327 176 L 331 180 L 332 180 L 334 182 L 336 182 L 337 183 L 341 183 L 342 184 L 343 184 L 344 183 L 348 183 L 349 182 L 351 182 L 352 181 L 353 181 L 359 175 L 359 174 L 361 171 L 361 168 L 362 167 L 362 162 L 361 161 L 361 158 L 360 157 L 359 154 L 357 152 L 357 151 L 356 150 L 355 150 L 353 148 L 352 148 L 349 146 L 347 146 L 346 145 Z M 339 158 L 341 158 L 342 157 L 343 157 L 344 158 L 346 158 L 349 161 L 349 163 L 350 164 L 350 165 L 347 170 L 346 170 L 345 171 L 340 171 L 336 167 L 336 162 L 337 161 L 337 160 Z M 166 145 L 165 146 L 163 146 L 162 147 L 159 148 L 157 150 L 156 150 L 156 151 L 153 154 L 153 155 L 151 158 L 151 161 L 150 162 L 150 166 L 151 167 L 151 171 L 152 172 L 153 175 L 158 180 L 159 180 L 161 182 L 163 182 L 164 183 L 168 183 L 169 184 L 170 184 L 171 183 L 175 183 L 176 182 L 178 182 L 179 181 L 180 181 L 186 175 L 186 174 L 188 171 L 188 168 L 189 167 L 189 162 L 188 161 L 188 158 L 187 157 L 186 154 L 180 148 L 179 148 L 176 146 L 174 146 L 173 145 Z M 166 158 L 168 158 L 169 157 L 170 157 L 171 158 L 173 158 L 176 161 L 176 167 L 172 171 L 167 171 L 163 167 L 163 161 Z M 338 86 L 337 87 L 335 87 L 334 88 L 333 88 L 331 90 L 330 90 L 327 93 L 327 94 L 324 99 L 324 102 L 323 103 L 323 107 L 324 108 L 324 111 L 325 112 L 326 115 L 330 120 L 331 120 L 333 122 L 334 122 L 335 123 L 337 123 L 338 124 L 347 124 L 348 123 L 350 123 L 351 122 L 354 121 L 358 117 L 358 116 L 360 114 L 360 112 L 361 111 L 361 109 L 362 108 L 362 102 L 361 101 L 361 98 L 360 97 L 360 96 L 358 94 L 358 93 L 354 89 L 353 89 L 350 87 L 348 87 L 347 86 Z M 341 98 L 345 98 L 349 102 L 349 103 L 350 104 L 350 105 L 349 106 L 349 108 L 346 111 L 345 111 L 344 112 L 341 112 L 340 111 L 339 111 L 336 108 L 336 102 L 339 99 L 340 99 Z M 165 86 L 164 87 L 162 87 L 161 88 L 158 89 L 154 93 L 154 94 L 152 96 L 152 98 L 151 99 L 151 102 L 150 103 L 150 107 L 151 108 L 151 111 L 152 112 L 152 113 L 153 114 L 154 117 L 157 120 L 158 120 L 160 122 L 161 122 L 162 123 L 164 123 L 165 124 L 174 124 L 175 123 L 177 123 L 178 122 L 179 122 L 181 120 L 182 120 L 185 117 L 185 116 L 188 111 L 188 108 L 189 107 L 189 103 L 188 102 L 188 99 L 187 98 L 187 96 L 185 94 L 185 93 L 182 90 L 181 90 L 179 88 L 178 88 L 177 87 L 175 87 L 174 86 Z M 167 98 L 172 98 L 176 102 L 176 104 L 177 105 L 176 106 L 176 108 L 173 111 L 172 111 L 171 112 L 168 112 L 167 111 L 166 111 L 163 108 L 163 102 Z" fill="currentColor" fill-rule="evenodd" clip-rule="evenodd"/>
</svg>
