<?xml version="1.0" encoding="iso-8859-1"?>
<!-- Uploaded to: SVG Repo, www.svgrepo.com, Generator: SVG Repo Mixer Tools -->
<svg fill="currentColor" height="800px" width="800px" version="1.1" id="Layer_1" xmlns="http://www.w3.org/2000/svg" xmlns:xlink="http://www.w3.org/1999/xlink" 
	 viewBox="0 0 512 512" xml:space="preserve">
<g>
	<g>
		<g>
			<path d="M490.667,170.667c11.782,0,21.333-9.551,21.333-21.333v-128C512,9.551,502.449,0,490.667,0H21.333
				C9.551,0,0,9.551,0,21.333v469.333C0,502.449,9.551,512,21.333,512h469.333c11.782,0,21.333-9.551,21.333-21.333v-85.333
				c0-11.782-9.551-21.333-21.333-21.333H415.39c20.274-22.648,32.61-52.55,32.61-85.333c0-11.782-9.551-21.333-21.333-21.333
				h-2.132c-8.475-41.82-41.382-74.726-83.201-83.201v-23.465H490.667z M469.333,469.333H42.667V42.667h426.667V128H106.667
				c-11.782,0-21.333,9.551-21.333,21.333v256c0,11.782,9.551,21.333,21.333,21.333h362.667V469.333z M298.667,277.333h-39.02
				c6.42-18.199,20.821-32.6,39.02-39.02V277.333z M237.356,320h165.287c-9.476,36.8-42.89,64-82.644,64
				C280.247,384,246.832,356.8,237.356,320z M380.353,277.333h-39.02v-39.02C359.533,244.733,373.933,259.134,380.353,277.333z
				 M298.667,194.132c-41.82,8.475-74.726,41.382-83.201,83.201h-2.132c-11.782,0-21.333,9.551-21.333,21.333
				c0,32.783,12.336,62.686,32.61,85.333H128V170.667h170.667V194.132z"/>
			<path d="M149.333,106.667c11.776,0,21.333-9.557,21.333-21.333S161.109,64,149.333,64S128,73.557,128,85.333
				S137.557,106.667,149.333,106.667z"/>
			<path d="M234.667,106.667c11.776,0,21.333-9.557,21.333-21.333S246.443,64,234.667,64s-21.333,9.557-21.333,21.333
				S222.891,106.667,234.667,106.667z"/>
		</g>
	</g>
</g>
</svg>