<?xml version="1.0" encoding="UTF-8"?>
<svg xmlns="http://www.w3.org/2000/svg"
     width="512" height="512" viewBox="0 0 512 512"
     fill="none">
  <title>Ícone vetorial</title>
  <path d="M 362 132 L 361 133 L 358 134 L 357 135 L 357 136 L 355 138 L 355 139 L 352 144 L 352 149 L 351 150 L 351 151 L 352 152 L 352 157 L 353 158 L 353 160 L 354 161 L 354 162 L 356 164 L 356 165 L 359 168 L 359 169 L 361 172 L 361 176 L 360 177 L 360 178 L 358 180 L 358 181 L 356 184 L 356 186 L 357 187 L 357 189 L 360 192 L 366 192 L 368 190 L 369 190 L 369 189 L 372 186 L 372 185 L 373 184 L 373 182 L 374 181 L 374 179 L 375 178 L 375 170 L 374 169 L 374 166 L 373 165 L 373 164 L 372 163 L 371 160 L 367 156 L 367 155 L 366 154 L 366 152 L 365 151 L 366 150 L 366 147 L 370 142 L 370 137 L 369 136 L 369 135 L 367 133 L 366 133 L 365 132 Z M 325 132 L 320 135 L 320 136 L 318 138 L 318 139 L 316 142 L 316 144 L 315 145 L 315 157 L 316 158 L 316 160 L 318 162 L 319 165 L 322 168 L 322 169 L 324 171 L 324 176 L 323 177 L 322 180 L 320 182 L 320 184 L 319 185 L 319 186 L 320 187 L 320 189 L 322 191 L 323 191 L 324 192 L 329 192 L 332 190 L 332 189 L 335 186 L 335 185 L 337 182 L 337 179 L 338 178 L 338 169 L 337 168 L 337 166 L 336 165 L 336 164 L 335 163 L 334 160 L 330 156 L 330 155 L 329 154 L 329 147 L 333 142 L 333 136 L 330 133 L 329 133 L 328 132 Z M 288 132 L 287 133 L 284 134 L 284 135 L 281 138 L 281 139 L 279 142 L 279 144 L 278 145 L 278 156 L 279 157 L 279 159 L 280 160 L 280 161 L 281 162 L 282 165 L 286 169 L 286 170 L 287 171 L 287 176 L 286 177 L 285 180 L 283 182 L 283 184 L 282 185 L 282 186 L 283 187 L 283 189 L 285 191 L 286 191 L 287 192 L 292 192 L 293 191 L 294 191 L 296 189 L 296 188 L 298 186 L 298 185 L 300 182 L 300 180 L 301 179 L 301 169 L 300 168 L 300 166 L 299 165 L 299 164 L 298 163 L 297 160 L 294 157 L 294 156 L 292 154 L 292 147 L 296 142 L 296 136 L 293 133 L 292 133 L 291 132 Z M 157 28 L 155 30 L 154 30 L 122 62 L 122 63 L 120 65 L 120 66 L 119 67 L 119 69 L 118 70 L 118 76 L 119 77 L 119 79 L 120 80 L 121 83 L 129 91 L 129 92 L 112 109 L 112 110 L 110 112 L 110 113 L 107 116 L 106 119 L 104 121 L 104 122 L 103 123 L 103 124 L 102 125 L 102 126 L 101 127 L 101 128 L 98 133 L 98 135 L 97 136 L 97 138 L 96 139 L 96 141 L 95 142 L 95 145 L 94 146 L 94 149 L 93 150 L 93 155 L 92 156 L 92 166 L 91 167 L 91 169 L 92 170 L 92 183 L 93 184 L 93 188 L 94 189 L 94 193 L 95 194 L 95 196 L 96 197 L 96 199 L 97 200 L 97 202 L 98 203 L 98 205 L 99 206 L 99 207 L 100 208 L 100 210 L 101 211 L 102 214 L 104 216 L 105 219 L 107 221 L 107 222 L 109 224 L 109 225 L 111 227 L 111 228 L 116 233 L 116 234 L 117 235 L 116 236 L 116 238 L 115 239 L 115 242 L 114 243 L 114 251 L 115 252 L 115 255 L 116 256 L 117 259 L 119 261 L 119 262 L 124 267 L 125 267 L 126 268 L 127 268 L 132 271 L 132 274 L 131 275 L 101 275 L 100 276 L 97 276 L 96 277 L 93 278 L 87 284 L 87 285 L 84 290 L 84 301 L 85 302 L 85 304 L 86 305 L 86 306 L 89 309 L 89 310 L 90 311 L 91 311 L 93 313 L 94 313 L 97 315 L 99 315 L 100 316 L 145 316 L 147 318 L 147 319 L 149 321 L 149 322 L 151 324 L 151 325 L 155 329 L 155 330 L 164 339 L 165 339 L 170 344 L 171 344 L 176 348 L 179 349 L 181 351 L 182 351 L 183 352 L 184 352 L 189 355 L 191 355 L 194 357 L 196 357 L 197 358 L 199 358 L 202 360 L 202 361 L 201 362 L 201 364 L 200 365 L 200 368 L 199 369 L 199 372 L 198 373 L 198 376 L 197 377 L 197 380 L 196 381 L 196 384 L 195 385 L 195 388 L 194 389 L 194 392 L 193 393 L 193 395 L 192 396 L 192 399 L 191 400 L 191 403 L 190 404 L 190 407 L 189 408 L 189 411 L 188 412 L 188 415 L 187 416 L 187 419 L 186 420 L 186 423 L 185 424 L 185 426 L 184 427 L 184 430 L 183 431 L 183 434 L 182 435 L 182 438 L 181 439 L 181 442 L 180 443 L 180 446 L 179 447 L 179 453 L 181 455 L 181 456 L 182 456 L 183 457 L 188 457 L 189 456 L 190 456 L 192 454 L 192 452 L 193 451 L 193 449 L 194 448 L 194 445 L 195 444 L 195 441 L 196 440 L 196 437 L 197 436 L 197 433 L 198 432 L 198 429 L 199 428 L 199 425 L 200 424 L 200 422 L 201 421 L 201 418 L 202 417 L 202 414 L 203 413 L 203 410 L 204 409 L 204 406 L 205 405 L 205 402 L 206 401 L 206 398 L 207 397 L 207 394 L 208 393 L 208 391 L 209 390 L 209 387 L 210 386 L 210 383 L 211 382 L 211 379 L 212 378 L 212 375 L 213 374 L 213 371 L 214 370 L 214 367 L 215 366 L 215 364 L 217 362 L 222 362 L 223 363 L 232 363 L 233 364 L 233 366 L 232 367 L 232 370 L 231 371 L 231 373 L 230 374 L 230 377 L 229 378 L 229 381 L 228 382 L 228 385 L 227 386 L 227 389 L 226 390 L 226 393 L 225 394 L 225 397 L 224 398 L 224 401 L 223 402 L 223 404 L 222 405 L 222 408 L 221 409 L 221 412 L 220 413 L 220 416 L 219 417 L 219 420 L 218 421 L 218 424 L 217 425 L 217 428 L 216 429 L 216 432 L 215 433 L 215 435 L 214 436 L 214 439 L 213 440 L 213 443 L 212 444 L 212 447 L 211 448 L 211 451 L 210 452 L 210 455 L 209 456 L 209 459 L 208 460 L 208 463 L 207 464 L 207 466 L 206 467 L 206 470 L 205 471 L 205 474 L 204 475 L 204 478 L 203 479 L 203 482 L 202 483 L 202 486 L 201 487 L 201 490 L 200 491 L 200 492 L 196 496 L 195 496 L 194 497 L 190 497 L 189 496 L 188 496 L 184 492 L 184 490 L 183 489 L 184 488 L 184 484 L 185 483 L 185 480 L 186 479 L 186 476 L 187 475 L 187 472 L 186 471 L 186 469 L 184 467 L 183 467 L 182 466 L 178 466 L 177 467 L 176 467 L 174 469 L 174 470 L 173 471 L 173 473 L 172 474 L 172 477 L 171 478 L 171 481 L 170 482 L 170 486 L 169 487 L 169 488 L 170 489 L 170 495 L 171 496 L 171 497 L 172 498 L 173 501 L 179 507 L 180 507 L 182 509 L 184 509 L 185 510 L 188 510 L 189 511 L 196 511 L 197 510 L 200 510 L 201 509 L 204 508 L 207 505 L 208 505 L 209 504 L 209 503 L 211 501 L 211 500 L 213 498 L 213 496 L 214 495 L 214 493 L 215 492 L 215 489 L 216 488 L 216 485 L 217 484 L 217 481 L 218 480 L 218 477 L 219 476 L 219 473 L 220 472 L 220 469 L 221 468 L 221 465 L 222 464 L 222 462 L 223 461 L 223 458 L 224 457 L 224 454 L 226 451 L 333 451 L 335 453 L 335 456 L 336 457 L 336 460 L 337 461 L 337 466 L 336 467 L 336 469 L 335 470 L 335 472 L 334 473 L 334 485 L 335 486 L 335 489 L 336 490 L 336 492 L 338 494 L 339 497 L 342 500 L 342 501 L 344 503 L 345 503 L 348 506 L 349 506 L 354 509 L 356 509 L 357 510 L 360 510 L 361 511 L 370 511 L 371 510 L 374 510 L 375 509 L 377 509 L 378 508 L 379 508 L 380 507 L 383 506 L 386 503 L 387 503 L 389 501 L 389 500 L 392 497 L 393 494 L 395 492 L 395 490 L 396 489 L 396 486 L 397 485 L 397 473 L 396 472 L 396 470 L 395 469 L 395 467 L 394 466 L 393 463 L 391 461 L 391 460 L 385 454 L 384 454 L 381 451 L 381 450 L 380 449 L 380 446 L 379 445 L 379 442 L 378 441 L 378 438 L 377 437 L 377 434 L 376 433 L 376 430 L 375 429 L 375 426 L 374 425 L 374 423 L 373 422 L 373 419 L 372 418 L 372 415 L 371 414 L 371 411 L 370 410 L 370 407 L 369 406 L 369 403 L 368 402 L 368 399 L 367 398 L 367 396 L 366 395 L 366 392 L 365 391 L 365 388 L 364 387 L 364 384 L 363 383 L 363 380 L 362 379 L 362 376 L 361 375 L 361 372 L 360 371 L 360 369 L 359 368 L 359 365 L 358 364 L 358 361 L 357 360 L 360 358 L 362 358 L 363 357 L 365 357 L 366 356 L 368 356 L 369 355 L 370 355 L 371 354 L 372 354 L 373 353 L 374 353 L 375 352 L 376 352 L 377 351 L 380 350 L 382 348 L 383 348 L 385 346 L 386 346 L 388 344 L 389 344 L 393 340 L 394 340 L 405 329 L 405 328 L 411 321 L 411 320 L 413 318 L 414 315 L 416 313 L 416 312 L 417 311 L 417 309 L 418 308 L 418 307 L 421 302 L 421 300 L 422 299 L 422 297 L 423 296 L 423 294 L 424 293 L 424 291 L 425 290 L 425 285 L 426 284 L 426 280 L 427 279 L 427 251 L 426 250 L 426 248 L 424 246 L 424 245 L 419 241 L 417 241 L 416 240 L 403 240 L 401 238 L 401 219 L 400 218 L 400 217 L 399 216 L 398 213 L 396 211 L 395 211 L 393 209 L 392 209 L 391 208 L 389 208 L 388 207 L 373 207 L 372 208 L 370 208 L 367 211 L 367 217 L 368 218 L 368 219 L 369 219 L 371 221 L 385 221 L 387 223 L 387 238 L 384 240 L 245 240 L 242 237 L 242 223 L 244 221 L 341 221 L 345 217 L 345 212 L 344 211 L 344 210 L 342 208 L 340 208 L 339 207 L 242 207 L 241 208 L 239 208 L 238 209 L 235 210 L 231 214 L 231 215 L 229 218 L 229 221 L 228 222 L 228 239 L 227 240 L 164 240 L 162 238 L 162 237 L 161 236 L 161 234 L 339 56 L 339 55 L 340 54 L 340 52 L 341 51 L 341 43 L 340 42 L 339 39 L 337 37 L 337 36 L 328 27 L 327 27 L 321 21 L 320 21 L 313 15 L 312 15 L 311 14 L 310 14 L 308 12 L 307 12 L 306 11 L 305 11 L 300 8 L 298 8 L 295 6 L 293 6 L 292 5 L 290 5 L 289 4 L 287 4 L 286 3 L 283 3 L 282 2 L 278 2 L 277 1 L 271 1 L 270 0 L 251 0 L 250 1 L 244 1 L 243 2 L 239 2 L 238 3 L 235 3 L 234 4 L 232 4 L 231 5 L 229 5 L 228 6 L 226 6 L 221 9 L 219 9 L 218 10 L 215 11 L 213 13 L 210 14 L 208 16 L 207 16 L 205 18 L 204 18 L 201 21 L 200 21 L 184 37 L 182 37 L 175 30 L 174 30 L 169 27 L 160 27 L 159 28 Z M 361 462 L 370 462 L 371 463 L 373 463 L 375 465 L 376 465 L 380 469 L 380 470 L 382 472 L 382 474 L 383 475 L 383 483 L 382 484 L 382 486 L 381 487 L 381 488 L 377 493 L 376 493 L 374 495 L 373 495 L 372 496 L 370 496 L 369 497 L 362 497 L 361 496 L 359 496 L 358 495 L 357 495 L 352 491 L 352 490 L 350 488 L 350 487 L 349 486 L 349 484 L 348 483 L 348 475 L 349 474 L 349 472 L 351 470 L 351 469 L 355 465 L 356 465 L 358 463 L 360 463 Z M 229 434 L 230 433 L 230 431 L 231 430 L 231 427 L 232 426 L 232 423 L 233 422 L 233 420 L 234 419 L 325 419 L 327 422 L 327 425 L 328 426 L 328 429 L 329 430 L 329 433 L 330 434 L 330 436 L 329 437 L 230 437 L 229 436 Z M 237 404 L 238 403 L 238 400 L 239 399 L 239 396 L 240 395 L 240 392 L 241 391 L 241 388 L 242 387 L 242 384 L 243 383 L 243 380 L 244 379 L 244 376 L 245 375 L 245 373 L 246 372 L 246 369 L 247 368 L 247 365 L 249 363 L 311 363 L 312 364 L 312 367 L 313 368 L 313 371 L 314 372 L 314 375 L 315 376 L 315 379 L 316 380 L 316 382 L 317 383 L 317 386 L 318 387 L 318 390 L 319 391 L 319 394 L 320 395 L 320 398 L 321 399 L 321 402 L 322 403 L 322 404 L 321 405 L 238 405 Z M 327 363 L 336 363 L 337 362 L 343 362 L 344 363 L 344 366 L 345 367 L 345 369 L 346 370 L 346 373 L 347 374 L 347 377 L 348 378 L 348 381 L 349 382 L 349 385 L 350 386 L 350 389 L 351 390 L 351 393 L 352 394 L 352 397 L 353 398 L 353 400 L 354 401 L 354 404 L 355 405 L 355 408 L 356 409 L 356 412 L 357 413 L 357 416 L 358 417 L 358 420 L 359 421 L 359 424 L 360 425 L 360 427 L 361 428 L 361 431 L 362 432 L 362 435 L 363 436 L 363 439 L 364 440 L 364 443 L 365 444 L 365 447 L 364 448 L 359 448 L 358 449 L 355 449 L 350 452 L 348 450 L 348 447 L 347 446 L 347 443 L 346 442 L 346 439 L 345 438 L 345 435 L 344 434 L 344 432 L 343 431 L 343 428 L 342 427 L 342 424 L 341 423 L 341 420 L 340 419 L 340 416 L 339 415 L 339 412 L 338 411 L 338 408 L 337 407 L 337 405 L 336 404 L 336 401 L 335 400 L 335 397 L 334 396 L 334 393 L 333 392 L 333 389 L 332 388 L 332 385 L 331 384 L 331 381 L 330 380 L 330 378 L 329 377 L 329 374 L 328 373 L 328 370 L 327 369 L 327 366 L 326 365 L 326 364 Z M 163 317 L 164 316 L 395 316 L 396 317 L 393 320 L 393 321 L 386 328 L 385 328 L 380 333 L 379 333 L 374 337 L 371 338 L 369 340 L 368 340 L 367 341 L 365 341 L 360 344 L 358 344 L 357 345 L 354 345 L 353 346 L 351 346 L 350 347 L 346 347 L 345 348 L 338 348 L 337 349 L 222 349 L 221 348 L 214 348 L 213 347 L 209 347 L 208 346 L 206 346 L 205 345 L 202 345 L 201 344 L 199 344 L 198 343 L 197 343 L 196 342 L 195 342 L 194 341 L 193 341 L 192 340 L 191 340 L 190 339 L 189 339 L 188 338 L 185 337 L 183 335 L 182 335 L 179 332 L 178 332 L 173 327 L 172 327 L 167 322 L 167 321 Z M 98 293 L 101 290 L 102 290 L 103 289 L 134 289 L 135 290 L 135 292 L 136 293 L 136 295 L 137 296 L 137 299 L 138 300 L 138 301 L 137 302 L 102 302 L 98 298 Z M 146 271 L 148 269 L 150 269 L 151 268 L 152 268 L 156 264 L 157 264 L 157 263 L 160 260 L 160 259 L 163 254 L 412 254 L 413 255 L 413 278 L 412 279 L 412 283 L 411 284 L 411 287 L 410 288 L 410 291 L 409 292 L 409 294 L 407 297 L 407 299 L 405 302 L 154 302 L 153 301 L 153 299 L 150 294 L 150 291 L 149 290 L 149 288 L 148 287 L 148 283 L 147 282 L 147 277 L 146 276 Z M 135 236 L 142 236 L 143 237 L 144 237 L 148 241 L 148 242 L 149 243 L 149 245 L 150 246 L 150 247 L 149 248 L 149 251 L 144 256 L 143 256 L 142 257 L 135 257 L 130 253 L 130 252 L 128 249 L 128 244 L 129 243 L 130 240 Z M 166 41 L 172 47 L 172 49 L 140 81 L 139 81 L 132 74 L 132 73 L 164 41 Z M 327 47 L 327 48 L 151 224 L 148 224 L 145 222 L 133 222 L 132 223 L 130 223 L 129 224 L 127 224 L 122 219 L 122 218 L 120 216 L 120 215 L 116 210 L 116 209 L 115 208 L 115 207 L 114 206 L 114 205 L 111 200 L 111 198 L 110 197 L 110 195 L 109 194 L 109 192 L 108 191 L 108 188 L 107 187 L 107 183 L 106 182 L 106 170 L 105 169 L 105 167 L 106 166 L 106 157 L 107 156 L 107 152 L 108 151 L 108 148 L 109 147 L 109 144 L 111 141 L 111 139 L 113 136 L 113 134 L 114 133 L 115 130 L 117 128 L 118 125 L 121 122 L 121 121 L 123 119 L 123 118 L 209 32 L 210 32 L 213 29 L 214 29 L 219 25 L 220 25 L 221 24 L 222 24 L 223 23 L 224 23 L 229 20 L 231 20 L 232 19 L 234 19 L 237 17 L 240 17 L 241 16 L 244 16 L 245 15 L 251 15 L 252 14 L 269 14 L 270 15 L 276 15 L 277 16 L 280 16 L 281 17 L 284 17 L 285 18 L 287 18 L 290 20 L 292 20 L 293 21 L 294 21 L 295 22 L 296 22 L 297 23 L 298 23 L 299 24 L 302 25 L 304 27 L 305 27 L 307 29 L 308 29 L 311 32 L 312 32 Z" fill="currentColor" fill-rule="evenodd" clip-rule="evenodd"/>
</svg>
