<?xml version="1.0" encoding="UTF-8"?>
<svg xmlns="http://www.w3.org/2000/svg"
     width="512" height="512" viewBox="0 0 512 512"
     fill="none">
  <title>Ícone vetorial</title>
  <path d="M 199 27 L 198 28 L 197 28 L 195 30 L 194 30 L 192 32 L 191 32 L 187 36 L 187 37 L 185 39 L 185 40 L 183 42 L 183 43 L 181 46 L 181 48 L 180 49 L 180 53 L 179 54 L 179 62 L 180 63 L 180 67 L 181 68 L 181 70 L 182 71 L 182 73 L 183 74 L 183 75 L 185 77 L 185 78 L 193 86 L 194 86 L 196 88 L 197 88 L 200 90 L 202 90 L 203 91 L 205 91 L 206 92 L 217 92 L 219 94 L 219 115 L 217 117 L 162 117 L 161 118 L 160 118 L 158 120 L 158 121 L 157 122 L 157 126 L 158 127 L 158 128 L 160 130 L 161 130 L 162 131 L 357 131 L 358 132 L 366 132 L 367 133 L 372 133 L 373 134 L 378 134 L 379 135 L 382 135 L 383 136 L 387 136 L 388 137 L 391 137 L 392 138 L 394 138 L 395 139 L 398 139 L 399 140 L 401 140 L 402 141 L 404 141 L 407 143 L 409 143 L 410 144 L 412 144 L 415 146 L 417 146 L 418 147 L 419 147 L 420 148 L 421 148 L 426 151 L 428 151 L 430 153 L 431 153 L 432 154 L 431 155 L 80 155 L 79 154 L 80 153 L 81 153 L 82 152 L 83 152 L 84 151 L 85 151 L 86 150 L 87 150 L 88 149 L 89 149 L 94 146 L 96 146 L 99 144 L 101 144 L 102 143 L 104 143 L 107 141 L 110 141 L 113 139 L 116 139 L 117 138 L 119 138 L 120 137 L 123 137 L 124 136 L 128 136 L 129 135 L 133 135 L 134 134 L 137 134 L 141 130 L 141 124 L 138 121 L 137 121 L 136 120 L 132 120 L 131 121 L 127 121 L 126 122 L 123 122 L 122 123 L 119 123 L 118 124 L 115 124 L 114 125 L 111 125 L 110 126 L 108 126 L 107 127 L 105 127 L 104 128 L 102 128 L 101 129 L 99 129 L 98 130 L 96 130 L 93 132 L 91 132 L 86 135 L 84 135 L 83 136 L 82 136 L 81 137 L 80 137 L 79 138 L 78 138 L 77 139 L 76 139 L 75 140 L 74 140 L 73 141 L 72 141 L 71 142 L 68 143 L 66 145 L 63 146 L 61 148 L 58 149 L 56 151 L 53 152 L 51 154 L 50 154 L 49 155 L 45 155 L 44 156 L 42 156 L 41 157 L 40 157 L 38 159 L 37 159 L 31 165 L 31 166 L 28 171 L 28 173 L 27 174 L 27 184 L 28 185 L 28 187 L 29 188 L 29 189 L 30 190 L 31 193 L 37 199 L 38 199 L 40 201 L 42 201 L 43 202 L 45 202 L 46 203 L 53 203 L 54 204 L 54 231 L 53 232 L 34 232 L 33 233 L 26 233 L 25 234 L 23 234 L 22 235 L 20 235 L 19 236 L 18 236 L 16 238 L 15 238 L 13 240 L 12 240 L 8 244 L 8 245 L 5 248 L 5 249 L 2 254 L 2 256 L 1 257 L 1 260 L 0 261 L 0 272 L 1 273 L 1 276 L 2 277 L 2 279 L 3 280 L 3 281 L 4 282 L 5 285 L 8 288 L 8 289 L 15 295 L 16 295 L 17 296 L 18 296 L 23 299 L 26 299 L 27 300 L 53 300 L 54 301 L 54 416 L 55 417 L 55 423 L 56 424 L 56 427 L 57 428 L 57 431 L 58 432 L 58 434 L 60 437 L 60 439 L 61 440 L 61 441 L 62 442 L 62 443 L 63 444 L 64 447 L 66 449 L 67 452 L 70 455 L 70 456 L 75 461 L 75 462 L 78 465 L 79 465 L 85 471 L 86 471 L 88 473 L 89 473 L 91 475 L 94 476 L 96 478 L 97 478 L 98 479 L 100 479 L 105 482 L 107 482 L 108 483 L 110 483 L 111 484 L 114 484 L 115 485 L 119 485 L 120 486 L 128 486 L 129 487 L 379 487 L 380 486 L 383 485 L 383 484 L 385 482 L 385 478 L 384 477 L 384 476 L 381 473 L 130 473 L 129 472 L 121 472 L 120 471 L 117 471 L 116 470 L 114 470 L 113 469 L 111 469 L 110 468 L 108 468 L 107 467 L 106 467 L 105 466 L 104 466 L 103 465 L 100 464 L 98 462 L 97 462 L 94 459 L 93 459 L 81 447 L 81 446 L 77 441 L 77 440 L 76 439 L 76 438 L 75 437 L 75 436 L 72 431 L 72 429 L 71 428 L 71 426 L 70 425 L 70 422 L 69 421 L 69 416 L 68 415 L 68 301 L 69 300 L 114 300 L 115 299 L 118 299 L 119 298 L 120 298 L 121 297 L 122 297 L 123 296 L 126 295 L 135 286 L 135 285 L 136 284 L 136 283 L 139 278 L 139 276 L 140 275 L 140 271 L 141 270 L 141 263 L 140 262 L 140 258 L 139 257 L 139 255 L 138 254 L 138 253 L 137 252 L 137 250 L 135 248 L 135 247 L 131 243 L 131 242 L 130 242 L 126 238 L 125 238 L 124 237 L 123 237 L 118 234 L 115 234 L 114 233 L 108 233 L 107 232 L 69 232 L 68 231 L 68 204 L 69 203 L 442 203 L 443 204 L 443 415 L 442 416 L 442 421 L 441 422 L 441 425 L 440 426 L 440 428 L 439 429 L 439 431 L 438 432 L 438 433 L 437 434 L 437 435 L 436 436 L 436 437 L 435 438 L 434 441 L 432 443 L 432 444 L 430 446 L 430 447 L 417 460 L 416 460 L 411 464 L 410 464 L 409 465 L 408 465 L 407 466 L 404 467 L 401 470 L 401 471 L 400 472 L 400 475 L 401 476 L 401 477 L 404 480 L 410 480 L 411 479 L 413 479 L 414 478 L 415 478 L 417 476 L 420 475 L 425 471 L 426 471 L 432 465 L 433 465 L 435 463 L 435 462 L 441 456 L 441 455 L 443 453 L 443 452 L 447 447 L 447 446 L 448 445 L 448 444 L 451 439 L 451 437 L 452 436 L 452 434 L 454 431 L 454 428 L 455 427 L 455 423 L 456 422 L 456 417 L 457 416 L 457 301 L 458 300 L 484 300 L 485 299 L 488 299 L 489 298 L 490 298 L 491 297 L 492 297 L 493 296 L 496 295 L 499 292 L 500 292 L 506 285 L 506 284 L 509 279 L 509 277 L 510 276 L 510 273 L 511 272 L 511 261 L 510 260 L 510 257 L 509 256 L 509 254 L 508 253 L 508 252 L 507 251 L 506 248 L 503 245 L 503 244 L 499 240 L 498 240 L 493 236 L 492 236 L 491 235 L 489 235 L 488 234 L 486 234 L 485 233 L 478 233 L 477 232 L 458 232 L 457 231 L 457 204 L 458 203 L 465 203 L 466 202 L 468 202 L 469 201 L 471 201 L 473 199 L 474 199 L 480 193 L 480 192 L 483 187 L 483 184 L 484 183 L 484 174 L 483 173 L 483 171 L 482 170 L 482 169 L 481 168 L 480 165 L 474 159 L 473 159 L 471 157 L 470 157 L 469 156 L 467 156 L 466 155 L 462 155 L 461 154 L 460 154 L 458 152 L 457 152 L 455 150 L 454 150 L 453 149 L 450 148 L 448 146 L 445 145 L 443 143 L 442 143 L 441 142 L 440 142 L 439 141 L 438 141 L 437 140 L 436 140 L 435 139 L 434 139 L 433 138 L 432 138 L 427 135 L 425 135 L 420 132 L 418 132 L 415 130 L 413 130 L 412 129 L 410 129 L 409 128 L 407 128 L 406 127 L 404 127 L 403 126 L 401 126 L 400 125 L 397 125 L 396 124 L 393 124 L 392 123 L 389 123 L 388 122 L 385 122 L 384 121 L 380 121 L 379 120 L 374 120 L 373 119 L 368 119 L 367 118 L 358 118 L 357 117 L 282 117 L 280 115 L 280 94 L 282 92 L 293 92 L 294 91 L 296 91 L 297 90 L 299 90 L 300 89 L 301 89 L 302 88 L 305 87 L 314 78 L 314 77 L 316 75 L 316 74 L 317 73 L 317 71 L 318 70 L 318 68 L 319 67 L 319 64 L 320 63 L 320 54 L 319 53 L 319 49 L 318 48 L 318 46 L 317 45 L 317 44 L 316 43 L 315 40 L 312 37 L 312 36 L 308 32 L 307 32 L 304 29 L 303 29 L 300 27 L 298 27 L 297 26 L 295 26 L 294 25 L 289 25 L 288 24 L 211 24 L 210 25 L 205 25 L 204 26 L 202 26 L 201 27 Z M 457 247 L 458 246 L 477 246 L 478 247 L 483 247 L 484 248 L 487 249 L 489 251 L 490 251 L 492 253 L 492 254 L 495 257 L 495 258 L 496 259 L 496 262 L 497 263 L 497 270 L 496 271 L 496 273 L 495 274 L 494 277 L 487 284 L 486 284 L 485 285 L 483 285 L 482 286 L 458 286 L 457 285 Z M 14 263 L 15 262 L 15 259 L 16 258 L 16 257 L 19 254 L 19 253 L 20 252 L 21 252 L 24 249 L 25 249 L 28 247 L 33 247 L 34 246 L 107 246 L 108 247 L 112 247 L 113 248 L 115 248 L 116 249 L 117 249 L 124 256 L 124 257 L 126 260 L 126 263 L 127 264 L 127 269 L 126 270 L 126 273 L 125 274 L 124 277 L 118 283 L 117 283 L 115 285 L 113 285 L 112 286 L 29 286 L 28 285 L 26 285 L 25 284 L 24 284 L 17 277 L 17 276 L 15 273 L 15 271 L 14 270 Z M 41 176 L 42 175 L 42 174 L 46 170 L 47 170 L 48 169 L 463 169 L 464 170 L 465 170 L 469 174 L 469 175 L 470 176 L 470 181 L 469 182 L 469 184 L 465 188 L 464 188 L 463 189 L 48 189 L 47 188 L 46 188 L 42 184 L 42 182 L 41 181 Z M 233 93 L 234 92 L 265 92 L 266 93 L 266 116 L 265 117 L 234 117 L 233 116 Z M 193 55 L 194 54 L 194 52 L 195 51 L 196 48 L 203 41 L 204 41 L 207 39 L 210 39 L 211 38 L 288 38 L 289 39 L 292 39 L 293 40 L 296 41 L 301 45 L 301 46 L 303 48 L 303 49 L 305 52 L 305 54 L 306 55 L 306 62 L 305 63 L 305 65 L 304 66 L 303 69 L 297 75 L 296 75 L 294 77 L 292 77 L 291 78 L 208 78 L 207 77 L 205 77 L 203 75 L 202 75 L 196 69 L 196 68 L 194 65 L 194 62 L 193 61 Z" fill="currentColor" fill-rule="evenodd" clip-rule="evenodd"/>
</svg>
