<?xml version="1.0" encoding="UTF-8"?>
<svg xmlns="http://www.w3.org/2000/svg"
     width="512" height="512" viewBox="0 0 512 512"
     fill="none">
  <title>Ícone vetorial</title>
  <path d="M 173 0 L 173 15 L 174 16 L 189 16 L 190 17 L 190 82 L 187 84 L 180 84 L 179 85 L 172 85 L 171 86 L 167 86 L 166 87 L 162 87 L 161 88 L 157 88 L 156 89 L 153 89 L 152 90 L 150 90 L 149 91 L 146 91 L 145 92 L 143 92 L 142 93 L 140 93 L 139 94 L 137 94 L 136 95 L 134 95 L 131 97 L 129 97 L 126 99 L 124 99 L 123 100 L 122 100 L 121 101 L 118 102 L 115 105 L 114 105 L 108 111 L 108 112 L 105 115 L 105 116 L 102 121 L 102 123 L 101 124 L 101 126 L 100 127 L 100 131 L 99 132 L 99 296 L 98 297 L 98 299 L 97 300 L 97 302 L 96 303 L 96 305 L 95 306 L 95 308 L 94 309 L 94 311 L 93 312 L 93 314 L 92 315 L 92 318 L 91 319 L 91 321 L 90 322 L 90 325 L 89 326 L 89 329 L 88 330 L 88 334 L 87 335 L 87 339 L 86 340 L 86 345 L 85 346 L 85 352 L 84 353 L 84 361 L 83 362 L 83 486 L 98 486 L 99 487 L 99 511 L 148 511 L 148 487 L 149 486 L 362 486 L 363 487 L 363 511 L 412 511 L 412 487 L 413 486 L 428 486 L 428 362 L 427 361 L 427 353 L 426 352 L 426 346 L 425 345 L 425 340 L 424 339 L 424 335 L 423 334 L 423 330 L 422 329 L 422 326 L 421 325 L 421 322 L 420 321 L 420 319 L 419 318 L 419 315 L 418 314 L 418 312 L 417 311 L 417 309 L 416 308 L 416 306 L 415 305 L 415 303 L 414 302 L 414 300 L 413 299 L 413 297 L 412 296 L 412 132 L 411 131 L 411 127 L 410 126 L 410 124 L 409 123 L 409 121 L 408 120 L 408 119 L 407 118 L 406 115 L 403 112 L 403 111 L 397 105 L 396 105 L 393 102 L 392 102 L 387 99 L 385 99 L 384 98 L 383 98 L 382 97 L 380 97 L 377 95 L 375 95 L 374 94 L 372 94 L 371 93 L 369 93 L 368 92 L 366 92 L 365 91 L 362 91 L 361 90 L 359 90 L 358 89 L 355 89 L 354 88 L 350 88 L 349 87 L 345 87 L 344 86 L 340 86 L 339 85 L 332 85 L 331 84 L 324 84 L 321 82 L 321 17 L 322 16 L 337 16 L 338 15 L 338 0 Z M 379 487 L 380 486 L 395 486 L 396 487 L 396 494 L 395 495 L 380 495 L 379 494 Z M 115 487 L 116 486 L 131 486 L 132 487 L 132 494 L 131 495 L 116 495 L 115 494 Z M 111 307 L 113 305 L 398 305 L 400 307 L 400 309 L 401 310 L 401 312 L 402 313 L 402 315 L 403 316 L 403 319 L 404 320 L 404 322 L 405 323 L 405 325 L 406 326 L 406 330 L 407 331 L 407 334 L 408 335 L 408 339 L 409 340 L 409 343 L 410 344 L 410 351 L 411 352 L 411 358 L 412 359 L 412 373 L 413 374 L 413 437 L 412 438 L 322 438 L 322 453 L 412 453 L 413 454 L 413 470 L 412 471 L 99 471 L 98 470 L 98 454 L 99 453 L 189 453 L 189 438 L 99 438 L 98 437 L 98 374 L 99 373 L 99 359 L 100 358 L 100 352 L 101 351 L 101 344 L 102 343 L 102 340 L 103 339 L 103 335 L 104 334 L 104 331 L 105 330 L 105 326 L 106 325 L 106 323 L 107 322 L 107 320 L 108 319 L 108 316 L 109 315 L 109 313 L 110 312 L 110 310 L 111 309 Z M 249 322 L 248 323 L 242 323 L 241 324 L 238 324 L 237 325 L 235 325 L 234 326 L 232 326 L 231 327 L 230 327 L 229 328 L 228 328 L 227 329 L 226 329 L 225 330 L 222 331 L 220 333 L 219 333 L 217 335 L 216 335 L 207 343 L 207 344 L 203 348 L 203 349 L 200 352 L 200 353 L 199 354 L 199 355 L 198 356 L 198 357 L 197 358 L 197 359 L 194 364 L 194 366 L 193 367 L 193 369 L 192 370 L 192 373 L 191 374 L 191 379 L 190 380 L 190 395 L 191 396 L 191 401 L 192 402 L 192 405 L 193 406 L 193 408 L 194 409 L 194 411 L 195 412 L 195 414 L 196 415 L 196 416 L 197 417 L 198 420 L 200 422 L 200 423 L 202 425 L 202 426 L 205 429 L 205 430 L 213 438 L 214 438 L 217 441 L 218 441 L 223 445 L 224 445 L 229 448 L 231 448 L 234 450 L 236 450 L 237 451 L 240 451 L 241 452 L 246 452 L 247 453 L 264 453 L 265 452 L 270 452 L 271 451 L 274 451 L 275 450 L 277 450 L 280 448 L 282 448 L 283 447 L 284 447 L 285 446 L 288 445 L 290 443 L 291 443 L 293 441 L 294 441 L 297 438 L 298 438 L 306 430 L 306 429 L 309 426 L 309 425 L 313 420 L 313 419 L 316 414 L 316 412 L 317 411 L 317 409 L 318 408 L 318 406 L 319 405 L 319 402 L 320 401 L 320 396 L 321 395 L 321 380 L 320 379 L 320 374 L 319 373 L 319 370 L 318 369 L 318 367 L 317 366 L 317 364 L 316 363 L 316 362 L 315 361 L 315 360 L 314 359 L 314 358 L 313 357 L 313 356 L 312 355 L 311 352 L 308 349 L 308 348 L 304 344 L 304 343 L 300 339 L 299 339 L 295 335 L 294 335 L 289 331 L 288 331 L 287 330 L 286 330 L 285 329 L 284 329 L 279 326 L 277 326 L 276 325 L 274 325 L 273 324 L 270 324 L 269 323 L 263 323 L 262 322 Z M 268 339 L 269 340 L 272 340 L 273 341 L 274 341 L 275 342 L 276 342 L 277 343 L 278 343 L 279 344 L 282 345 L 285 348 L 286 348 L 295 357 L 295 358 L 298 361 L 298 362 L 299 363 L 299 364 L 300 365 L 300 366 L 303 371 L 303 374 L 304 375 L 304 377 L 305 378 L 305 386 L 306 387 L 306 388 L 305 389 L 305 397 L 304 398 L 304 400 L 303 401 L 303 404 L 300 409 L 300 411 L 299 412 L 299 413 L 296 416 L 296 417 L 285 428 L 284 428 L 279 432 L 278 432 L 277 433 L 275 433 L 272 435 L 270 435 L 269 436 L 266 436 L 265 437 L 264 437 L 263 436 L 263 340 L 264 339 Z M 243 339 L 247 339 L 248 340 L 248 436 L 247 437 L 246 437 L 245 436 L 242 436 L 241 435 L 239 435 L 236 433 L 234 433 L 233 432 L 232 432 L 230 430 L 229 430 L 227 428 L 226 428 L 215 417 L 215 416 L 211 411 L 211 409 L 208 404 L 208 401 L 207 400 L 207 398 L 206 397 L 206 378 L 207 377 L 207 375 L 208 374 L 208 371 L 209 370 L 209 369 L 210 368 L 210 367 L 211 366 L 211 365 L 212 364 L 213 361 L 216 358 L 216 357 L 225 348 L 226 348 L 231 344 L 232 344 L 237 341 L 239 341 L 240 340 L 242 340 Z M 230 141 L 232 139 L 279 139 L 281 141 L 281 181 L 280 182 L 231 182 L 230 181 Z M 115 140 L 116 139 L 213 139 L 215 141 L 215 197 L 296 197 L 296 141 L 298 139 L 395 139 L 396 140 L 396 288 L 395 289 L 116 289 L 115 288 Z M 306 256 L 306 272 L 370 272 L 371 271 L 371 256 Z M 223 256 L 223 272 L 288 272 L 288 256 Z M 140 256 L 140 271 L 141 272 L 205 272 L 205 256 Z M 264 231 L 264 247 L 329 247 L 329 231 Z M 182 231 L 182 247 L 247 247 L 247 231 Z M 296 99 L 297 98 L 313 98 L 314 99 L 327 99 L 328 100 L 334 100 L 335 101 L 340 101 L 341 102 L 345 102 L 346 103 L 349 103 L 350 104 L 353 104 L 354 105 L 357 105 L 358 106 L 361 106 L 362 107 L 364 107 L 365 108 L 367 108 L 370 110 L 372 110 L 373 111 L 375 111 L 378 113 L 380 113 L 381 114 L 384 115 L 386 117 L 387 117 L 391 121 L 391 122 L 392 123 L 391 124 L 297 124 L 296 123 Z M 230 99 L 231 98 L 280 98 L 281 99 L 281 123 L 280 124 L 231 124 L 230 123 Z M 215 99 L 215 123 L 214 124 L 120 124 L 119 123 L 120 122 L 120 121 L 124 117 L 125 117 L 127 115 L 128 115 L 131 113 L 133 113 L 136 111 L 138 111 L 139 110 L 141 110 L 144 108 L 146 108 L 147 107 L 149 107 L 150 106 L 153 106 L 154 105 L 157 105 L 158 104 L 161 104 L 162 103 L 165 103 L 166 102 L 170 102 L 171 101 L 176 101 L 177 100 L 183 100 L 184 99 L 197 99 L 198 98 L 214 98 Z M 205 17 L 206 16 L 305 16 L 306 17 L 306 81 L 304 83 L 207 83 L 205 81 Z" fill="currentColor" fill-rule="evenodd" clip-rule="evenodd"/>
</svg>
