<?xml version="1.0" encoding="UTF-8"?>
<svg xmlns="http://www.w3.org/2000/svg"
     width="512" height="512" viewBox="0 0 512 512"
     fill="none">
  <title>Ícone vetorial</title>
  <path d="M 216 1 L 215 2 L 213 2 L 212 3 L 210 3 L 209 4 L 208 4 L 206 6 L 203 7 L 193 17 L 193 18 L 191 20 L 191 21 L 189 24 L 189 26 L 187 29 L 187 33 L 186 34 L 186 93 L 187 94 L 187 97 L 188 98 L 188 100 L 189 101 L 189 102 L 190 103 L 190 104 L 191 105 L 192 108 L 195 111 L 195 112 L 200 117 L 201 117 L 202 118 L 202 220 L 201 221 L 177 221 L 176 222 L 170 222 L 169 223 L 166 223 L 163 225 L 161 225 L 160 226 L 159 226 L 158 227 L 157 227 L 156 228 L 153 229 L 150 232 L 149 232 L 141 240 L 141 241 L 138 244 L 138 245 L 137 246 L 137 247 L 136 248 L 136 249 L 133 254 L 133 256 L 132 257 L 132 260 L 131 261 L 131 267 L 130 268 L 130 452 L 159 452 L 159 325 L 160 324 L 214 324 L 215 325 L 215 463 L 216 464 L 216 471 L 217 472 L 217 475 L 218 476 L 218 479 L 220 482 L 220 484 L 221 485 L 221 486 L 223 488 L 223 489 L 224 490 L 224 491 L 226 493 L 226 494 L 230 498 L 230 499 L 235 504 L 236 504 L 241 509 L 242 509 L 244 511 L 323 511 L 325 509 L 326 509 L 330 505 L 331 505 L 337 499 L 337 498 L 340 495 L 340 494 L 344 489 L 344 488 L 346 485 L 346 483 L 348 480 L 348 478 L 349 477 L 349 474 L 350 473 L 350 469 L 351 468 L 351 325 L 352 324 L 364 324 L 364 119 L 373 110 L 373 109 L 375 107 L 375 106 L 378 101 L 378 99 L 379 98 L 379 96 L 380 95 L 380 90 L 381 89 L 381 37 L 380 36 L 380 32 L 379 31 L 379 28 L 378 27 L 378 25 L 377 24 L 376 21 L 374 19 L 374 18 L 372 16 L 372 15 L 366 9 L 365 9 L 362 6 L 361 6 L 360 5 L 359 5 L 354 2 L 351 2 L 350 1 L 346 1 L 345 0 L 221 0 L 220 1 Z M 246 324 L 321 324 L 322 325 L 322 465 L 321 466 L 321 469 L 320 470 L 320 472 L 319 473 L 319 474 L 317 476 L 317 477 L 312 482 L 254 482 L 251 479 L 251 478 L 248 475 L 248 474 L 247 473 L 247 471 L 246 470 L 246 468 L 245 467 L 245 463 L 244 462 L 244 326 Z M 231 252 L 233 250 L 334 250 L 335 251 L 335 294 L 334 295 L 232 295 L 231 294 Z M 167 255 L 168 255 L 170 253 L 171 253 L 174 251 L 177 251 L 178 250 L 201 250 L 202 251 L 202 294 L 201 295 L 160 295 L 159 294 L 159 269 L 160 268 L 160 265 L 161 264 L 162 261 L 164 259 L 164 258 Z M 231 128 L 233 126 L 334 126 L 335 127 L 335 220 L 334 221 L 299 221 L 298 220 L 298 160 L 269 160 L 269 220 L 268 221 L 232 221 L 231 220 Z M 215 37 L 216 36 L 216 35 L 220 31 L 221 31 L 224 29 L 343 29 L 349 33 L 349 34 L 351 36 L 351 38 L 352 39 L 352 87 L 351 88 L 351 90 L 350 91 L 350 92 L 346 96 L 345 96 L 344 97 L 223 97 L 222 96 L 221 96 L 216 91 L 216 90 L 215 89 Z" fill="currentColor" fill-rule="evenodd" clip-rule="evenodd"/>
</svg>
