<?xml version="1.0" encoding="UTF-8"?>
<svg xmlns="http://www.w3.org/2000/svg"
     width="512" height="512" viewBox="0 0 512 512"
     fill="none">
  <title>Ícone vetorial</title>
  <path d="M 0 314 L 0 324 L 1 325 L 1 331 L 2 332 L 2 336 L 3 337 L 3 340 L 4 341 L 4 343 L 5 344 L 5 346 L 7 349 L 7 351 L 8 352 L 8 353 L 10 355 L 10 356 L 11 357 L 12 360 L 14 362 L 14 363 L 17 366 L 17 367 L 29 379 L 30 379 L 34 383 L 35 383 L 37 385 L 38 385 L 43 389 L 44 389 L 49 392 L 51 392 L 52 393 L 299 393 L 300 392 L 301 392 L 302 391 L 303 391 L 304 390 L 307 389 L 309 387 L 312 386 L 314 384 L 315 384 L 318 381 L 319 381 L 327 373 L 328 373 L 329 372 L 329 371 L 334 366 L 334 365 L 337 362 L 338 359 L 340 357 L 340 356 L 341 355 L 341 354 L 344 349 L 344 347 L 346 344 L 346 342 L 347 341 L 347 338 L 349 335 L 503 335 L 504 334 L 506 334 L 510 330 L 510 328 L 511 327 L 511 323 L 510 322 L 509 319 L 504 316 L 351 316 L 350 315 L 350 313 L 349 312 L 348 309 L 343 306 L 8 306 L 7 307 L 5 307 L 1 311 L 1 313 Z M 20 326 L 21 325 L 329 325 L 330 326 L 330 329 L 329 330 L 329 333 L 328 334 L 328 337 L 327 338 L 327 339 L 324 344 L 324 346 L 322 348 L 322 349 L 320 351 L 320 352 L 317 355 L 317 356 L 309 364 L 308 364 L 304 368 L 303 368 L 301 370 L 300 370 L 299 371 L 296 372 L 294 374 L 57 374 L 56 373 L 55 373 L 54 372 L 51 371 L 46 367 L 45 367 L 39 361 L 38 361 L 37 360 L 37 359 L 31 353 L 31 352 L 27 347 L 27 346 L 25 343 L 25 341 L 22 336 L 22 333 L 21 332 L 21 329 L 20 328 Z M 251 118 L 244 118 L 243 119 L 242 119 L 238 123 L 238 127 L 237 128 L 237 133 L 236 134 L 236 135 L 234 137 L 234 138 L 223 149 L 223 150 L 219 155 L 219 156 L 216 161 L 216 163 L 215 164 L 215 167 L 214 168 L 214 180 L 215 181 L 215 184 L 216 185 L 216 187 L 217 188 L 217 189 L 218 190 L 219 193 L 221 195 L 221 196 L 224 199 L 224 200 L 234 210 L 234 211 L 236 213 L 236 214 L 237 215 L 237 226 L 236 227 L 236 229 L 233 232 L 233 233 L 222 244 L 222 245 L 218 250 L 218 251 L 217 252 L 217 254 L 215 257 L 215 261 L 214 262 L 214 269 L 215 270 L 215 272 L 217 274 L 217 275 L 218 275 L 221 277 L 227 277 L 232 273 L 232 272 L 233 271 L 233 266 L 234 265 L 234 262 L 235 261 L 235 259 L 240 254 L 240 253 L 249 244 L 249 243 L 252 240 L 252 239 L 254 236 L 254 234 L 255 233 L 255 231 L 256 230 L 256 226 L 257 225 L 257 217 L 256 216 L 256 211 L 255 210 L 255 208 L 254 207 L 254 206 L 253 205 L 252 202 L 250 200 L 250 199 L 247 196 L 247 195 L 237 185 L 237 184 L 235 182 L 235 181 L 234 180 L 234 176 L 233 175 L 233 173 L 234 172 L 234 168 L 235 167 L 236 164 L 247 153 L 247 152 L 250 149 L 250 148 L 252 146 L 252 145 L 255 140 L 255 138 L 256 137 L 256 132 L 257 131 L 257 126 L 256 125 L 256 123 L 255 122 L 255 121 L 254 120 L 253 120 Z M 191 118 L 183 118 L 181 120 L 180 120 L 180 121 L 178 123 L 178 126 L 177 127 L 177 132 L 176 133 L 175 136 L 173 138 L 173 139 L 163 149 L 163 150 L 160 153 L 160 154 L 158 156 L 158 157 L 156 160 L 156 162 L 155 163 L 155 166 L 154 167 L 154 181 L 155 182 L 155 185 L 156 186 L 156 188 L 157 189 L 158 192 L 160 194 L 160 195 L 163 198 L 163 199 L 173 209 L 173 210 L 175 212 L 175 213 L 177 216 L 177 226 L 176 227 L 175 230 L 161 245 L 161 246 L 159 248 L 159 249 L 156 254 L 156 256 L 155 257 L 155 260 L 154 261 L 154 271 L 156 273 L 156 274 L 157 275 L 158 275 L 160 277 L 166 277 L 171 274 L 171 273 L 173 270 L 173 264 L 174 263 L 174 261 L 175 260 L 175 259 L 177 257 L 177 256 L 188 245 L 188 244 L 191 241 L 191 240 L 192 239 L 192 238 L 195 233 L 195 230 L 196 229 L 196 213 L 195 212 L 195 209 L 194 208 L 194 206 L 193 205 L 192 202 L 189 199 L 189 198 L 185 194 L 185 193 L 176 184 L 176 183 L 174 180 L 174 178 L 173 177 L 173 171 L 174 170 L 174 168 L 175 167 L 175 165 L 184 156 L 184 155 L 189 150 L 189 149 L 192 146 L 192 145 L 194 142 L 194 140 L 195 139 L 195 137 L 196 136 L 196 129 L 197 128 L 197 127 L 196 126 L 196 123 Z M 130 118 L 123 118 L 122 119 L 121 119 L 119 121 L 119 122 L 117 125 L 117 131 L 116 132 L 116 134 L 115 135 L 115 136 L 111 140 L 111 141 L 101 151 L 101 152 L 99 154 L 99 155 L 97 157 L 97 158 L 96 159 L 96 161 L 95 162 L 95 165 L 94 166 L 94 173 L 93 174 L 94 175 L 94 182 L 95 183 L 95 186 L 96 187 L 96 188 L 97 189 L 97 190 L 98 191 L 99 194 L 102 197 L 102 198 L 112 208 L 112 209 L 115 212 L 115 213 L 116 214 L 116 216 L 117 217 L 117 224 L 116 225 L 116 227 L 115 228 L 114 231 L 103 242 L 103 243 L 100 246 L 100 247 L 98 249 L 98 250 L 96 253 L 96 255 L 95 256 L 95 258 L 94 259 L 94 271 L 95 272 L 95 273 L 98 276 L 99 276 L 100 277 L 106 277 L 107 276 L 108 276 L 112 272 L 112 269 L 113 268 L 113 263 L 114 262 L 114 260 L 116 258 L 116 257 L 127 246 L 127 245 L 130 242 L 130 241 L 132 239 L 132 238 L 134 235 L 134 233 L 135 232 L 135 229 L 136 228 L 136 214 L 135 213 L 135 210 L 134 209 L 134 207 L 133 206 L 133 205 L 132 204 L 131 201 L 128 198 L 128 197 L 117 186 L 117 185 L 115 183 L 115 182 L 113 179 L 113 169 L 114 168 L 115 165 L 117 163 L 117 162 L 128 151 L 128 150 L 131 147 L 131 146 L 134 141 L 134 139 L 135 138 L 135 135 L 136 134 L 136 124 L 135 123 L 135 122 L 132 119 L 131 119 Z" fill="currentColor" fill-rule="evenodd" clip-rule="evenodd"/>
</svg>
